<?xml version="1.0" encoding="utf-8"?>
<!-- Generator: Adobe Illustrator 24.0.1, SVG Export Plug-In . SVG Version: 6.00 Build 0)  -->
<svg version="1.1" id="레이어_1" xmlns="http://www.w3.org/2000/svg" xmlns:xlink="http://www.w3.org/1999/xlink" x="0px"
	 y="0px" viewBox="0 0 176 42" style="enable-background:new 0 0 176 42;" xml:space="preserve">
<style type="text/css">
	.st0{fill:#EA575A;}
	.st1{fill:#FFFFFF;}
</style>
<rect x="0.6" y="1" class="st0" width="85.4" height="40.4"/>
<g>
	<path class="st1" d="M43.3,16.3v0.4h-6.8l-0.1-0.4C35.7,12.9,33.6,11,30,11c-4.3,0-7.4,3.7-7.4,10.2c0,7.4,3.3,10.7,7.3,10.7
		c3.5,0,5.6-2.1,6.3-5.6l0.1-0.4h6.8v0.4c-0.7,6.7-5.8,10.6-13.3,10.6c-8.1,0-14.2-5.6-14.2-15.3C15.6,11.6,22,6,30.2,6
		C38.5,6,42.7,10.5,43.3,16.3z"/>
	<path class="st1" d="M68.3,24.8c0,7.1-4.5,12.1-12.1,12.1s-12.1-5-12.1-12.1s4.5-12.1,12.1-12.1C63.7,12.8,68.3,17.7,68.3,24.8z
		 M61.3,24.8c0-4.8-1.9-7.4-5.1-7.4C53,17.4,51,20,51,24.8s1.9,7.4,5.2,7.4C59.4,32.3,61.3,29.6,61.3,24.8z"/>
	<path class="st1" d="M76.7,28.5c0,1,0,1.5,0,2.1c0.1,1,0.6,1.4,2.6,1.3v4.6c-1.3,0.1-2.5,0.2-4,0.2c-3.2,0-5.1-1.2-5.3-4.3
		c0-1.1,0-2.2,0-3.8V4.7h6.8v23.8H76.7z"/>
	<path class="st1" d="M103.7,24.8c0,7.1-4.5,12.1-12.1,12.1s-12.1-5-12.1-12.1s4.5-12,12.1-12S103.7,17.7,103.7,24.8z M96.8,24.8
		c0-4.8-1.9-7.4-5.1-7.4s-5.2,2.6-5.2,7.4s1.9,7.4,5.2,7.4C94.8,32.3,96.8,29.6,96.8,24.8z"/>
	<path class="st1" d="M127.5,36.3h-6.7v-3.9l-1.9,3.1c-1.5,1-3.2,1.5-5.3,1.5c-4.7,0-7.6-2.7-8.1-5.8c-0.2-1.2-0.2-2.4-0.2-4.3V13.4
		h6.7v12c0,0.7,0,2,0.2,3.1c0.3,2.3,1.5,3.7,4.1,3.7c2.8,0,4.6-2.4,4.6-6.6V13.4h6.7L127.5,36.3L127.5,36.3z"/>
	<path class="st1" d="M145.3,13v5.5c-5.3-0.3-7.6,1.8-7.6,8.3v9.6h-6.8v-23h6.8v4.4l1.7-3.2c1.2-1.2,2.8-1.8,4.2-1.8
		C144.3,12.8,144.8,12.9,145.3,13z"/>
	<path class="st1" d="M164.4,20.1h-6.7c-0.4-1.9-1.4-3-3.1-3c-1.5,0-2.4,0.9-2.4,2.1c0,1.5,1.2,2.4,5.3,3.4c4.4,1.1,7.3,3,7.3,7.3
		c0,4.8-4.3,7-9.7,7c-5.9,0-9.9-2.5-10.5-7.7h6.7c0.5,2.2,2,3.3,3.9,3.3c1.6,0,2.9-0.7,2.9-2.2c0-1.6-1.5-2.5-5.5-3.5
		c-4.3-1.1-7.1-3-7.1-6.9c0-4.5,3.8-7.2,9.6-7.2C160.7,12.8,163.9,15.9,164.4,20.1z"/>
</g>
<circle class="st0" cx="170.3" cy="32.6" r="3.7"/>
</svg>
